<svg xmlns="http://www.w3.org/2000/svg" width="1080" height="470" viewBox="0 0 1080 470" role="img" aria-labelledby="title desc">
<title id="title">Does any spacer position matter?</title>
<desc id="desc">Line chart of per-position Spearman correlation with 95% confidence intervals, for the spacer folded alone and folded with the sgRNA scaffold.</desc>
<rect width="1080" height="470" fill="#f7f4ec" rx="24"/>
<text x="45" y="54" fill="#16211d" font-size="28" font-weight="700" font-family="Arial, sans-serif">Does any spacer position matter?</text>
<text x="45" y="82" fill="#61706a" font-size="15" font-family="Arial, sans-serif">Doench 2014 + 2016 pooled (human cells) — mean within-gene Spearman between unpaired probability and editing efficiency, computed separately at every position.</text>
<rect x="657.0" y="150" width="378.0" height="230" fill="#d6a84a" opacity="0.10"/>
<text x="846.0" y="138" fill="#61706a" font-size="13" text-anchor="middle" font-family="Arial, sans-serif">canonical seed (13-20)</text>
<line x1="90" y1="380.0" x2="1035" y2="380.0" stroke="#d8ded8" stroke-width="1"/>
<text x="78" y="384.0" fill="#61706a" font-size="12" text-anchor="end" font-family="Arial, sans-serif">-0.15</text>
<line x1="90" y1="341.7" x2="1035" y2="341.7" stroke="#d8ded8" stroke-width="1"/>
<text x="78" y="345.6666666666667" fill="#61706a" font-size="12" text-anchor="end" font-family="Arial, sans-serif">-0.10</text>
<line x1="90" y1="303.3" x2="1035" y2="303.3" stroke="#d8ded8" stroke-width="1"/>
<text x="78" y="307.3333333333333" fill="#61706a" font-size="12" text-anchor="end" font-family="Arial, sans-serif">-0.05</text>
<line x1="90" y1="265.0" x2="1035" y2="265.0" stroke="#16211d" stroke-width="2"/>
<text x="78" y="269.0" fill="#61706a" font-size="12" text-anchor="end" font-family="Arial, sans-serif">+0.00</text>
<line x1="90" y1="226.7" x2="1035" y2="226.7" stroke="#d8ded8" stroke-width="1"/>
<text x="78" y="230.66666666666669" fill="#61706a" font-size="12" text-anchor="end" font-family="Arial, sans-serif">+0.05</text>
<line x1="90" y1="188.3" x2="1035" y2="188.3" stroke="#d8ded8" stroke-width="1"/>
<text x="78" y="192.33333333333334" fill="#61706a" font-size="12" text-anchor="end" font-family="Arial, sans-serif">+0.10</text>
<line x1="90" y1="150.0" x2="1035" y2="150.0" stroke="#d8ded8" stroke-width="1"/>
<text x="78" y="154.0" fill="#61706a" font-size="12" text-anchor="end" font-family="Arial, sans-serif">+0.15</text>
<text x="113.625" y="402" fill="#61706a" font-size="12" text-anchor="middle" font-family="Arial, sans-serif">1</text>
<text x="160.875" y="402" fill="#61706a" font-size="12" text-anchor="middle" font-family="Arial, sans-serif">2</text>
<text x="208.125" y="402" fill="#61706a" font-size="12" text-anchor="middle" font-family="Arial, sans-serif">3</text>
<text x="255.375" y="402" fill="#61706a" font-size="12" text-anchor="middle" font-family="Arial, sans-serif">4</text>
<text x="302.625" y="402" fill="#61706a" font-size="12" text-anchor="middle" font-family="Arial, sans-serif">5</text>
<text x="349.875" y="402" fill="#61706a" font-size="12" text-anchor="middle" font-family="Arial, sans-serif">6</text>
<text x="397.125" y="402" fill="#61706a" font-size="12" text-anchor="middle" font-family="Arial, sans-serif">7</text>
<text x="444.375" y="402" fill="#61706a" font-size="12" text-anchor="middle" font-family="Arial, sans-serif">8</text>
<text x="491.625" y="402" fill="#61706a" font-size="12" text-anchor="middle" font-family="Arial, sans-serif">9</text>
<text x="538.875" y="402" fill="#61706a" font-size="12" text-anchor="middle" font-family="Arial, sans-serif">10</text>
<text x="586.125" y="402" fill="#61706a" font-size="12" text-anchor="middle" font-family="Arial, sans-serif">11</text>
<text x="633.375" y="402" fill="#61706a" font-size="12" text-anchor="middle" font-family="Arial, sans-serif">12</text>
<text x="680.625" y="402" fill="#61706a" font-size="12" text-anchor="middle" font-family="Arial, sans-serif">13</text>
<text x="727.875" y="402" fill="#61706a" font-size="12" text-anchor="middle" font-family="Arial, sans-serif">14</text>
<text x="775.125" y="402" fill="#61706a" font-size="12" text-anchor="middle" font-family="Arial, sans-serif">15</text>
<text x="822.375" y="402" fill="#61706a" font-size="12" text-anchor="middle" font-family="Arial, sans-serif">16</text>
<text x="869.625" y="402" fill="#61706a" font-size="12" text-anchor="middle" font-family="Arial, sans-serif">17</text>
<text x="916.875" y="402" fill="#61706a" font-size="12" text-anchor="middle" font-family="Arial, sans-serif">18</text>
<text x="964.125" y="402" fill="#61706a" font-size="12" text-anchor="middle" font-family="Arial, sans-serif">19</text>
<text x="1011.375" y="402" fill="#61706a" font-size="12" text-anchor="middle" font-family="Arial, sans-serif">20</text>
<text x="562.5" y="428" fill="#16211d" font-size="14" text-anchor="middle" font-family="Arial, sans-serif">spacer position (1 = PAM-distal 5&#x27; end, 20 = PAM-proximal)</text>
<text x="45" y="128" fill="#16211d" font-size="13" font-weight="700" font-family="Arial, sans-serif">Spearman rho</text>
<line x1="109.6" y1="290.3" x2="109.6" y2="220.3" stroke="#2f7d62" stroke-width="2" opacity="0.45"/>
<line x1="156.9" y1="275.5" x2="156.9" y2="211.7" stroke="#2f7d62" stroke-width="2" opacity="0.45"/>
<line x1="204.1" y1="291.0" x2="204.1" y2="211.3" stroke="#2f7d62" stroke-width="2" opacity="0.45"/>
<line x1="251.4" y1="273.8" x2="251.4" y2="207.0" stroke="#2f7d62" stroke-width="2" opacity="0.45"/>
<line x1="298.6" y1="282.5" x2="298.6" y2="214.1" stroke="#2f7d62" stroke-width="2" opacity="0.45"/>
<line x1="345.9" y1="290.5" x2="345.9" y2="226.2" stroke="#2f7d62" stroke-width="2" opacity="0.45"/>
<line x1="393.1" y1="314.5" x2="393.1" y2="254.7" stroke="#2f7d62" stroke-width="2" opacity="0.45"/>
<line x1="440.4" y1="303.5" x2="440.4" y2="264.8" stroke="#2f7d62" stroke-width="2" opacity="0.45"/>
<line x1="487.6" y1="300.1" x2="487.6" y2="242.7" stroke="#2f7d62" stroke-width="2" opacity="0.45"/>
<line x1="534.9" y1="279.1" x2="534.9" y2="240.6" stroke="#2f7d62" stroke-width="2" opacity="0.45"/>
<line x1="582.1" y1="271.6" x2="582.1" y2="203.3" stroke="#2f7d62" stroke-width="2" opacity="0.45"/>
<line x1="629.4" y1="276.3" x2="629.4" y2="212.2" stroke="#2f7d62" stroke-width="2" opacity="0.45"/>
<line x1="676.6" y1="295.2" x2="676.6" y2="225.7" stroke="#2f7d62" stroke-width="2" opacity="0.45"/>
<line x1="723.9" y1="289.7" x2="723.9" y2="236.2" stroke="#2f7d62" stroke-width="2" opacity="0.45"/>
<line x1="771.1" y1="300.8" x2="771.1" y2="226.1" stroke="#2f7d62" stroke-width="2" opacity="0.45"/>
<line x1="818.4" y1="305.1" x2="818.4" y2="247.2" stroke="#2f7d62" stroke-width="2" opacity="0.45"/>
<line x1="865.6" y1="318.7" x2="865.6" y2="251.0" stroke="#2f7d62" stroke-width="2" opacity="0.45"/>
<line x1="912.9" y1="328.8" x2="912.9" y2="259.5" stroke="#2f7d62" stroke-width="2" opacity="0.45"/>
<line x1="960.1" y1="327.9" x2="960.1" y2="266.2" stroke="#2f7d62" stroke-width="2" opacity="0.45"/>
<line x1="1007.4" y1="331.1" x2="1007.4" y2="263.6" stroke="#2f7d62" stroke-width="2" opacity="0.45"/>
<polyline points="109.6,256.2 156.9,244.3 204.1,250.0 251.4,240.5 298.6,247.4 345.9,261.0 393.1,285.3 440.4,284.4 487.6,272.2 534.9,259.7 582.1,242.0 629.4,243.6 676.6,257.8 723.9,260.9 771.1,262.9 818.4,276.6 865.6,284.5 912.9,295.2 960.1,297.5 1007.4,294.2" fill="none" stroke="#2f7d62" stroke-width="2.5" opacity="0.85"/>
<circle cx="109.6" cy="256.2" r="3.5" fill="#f7f4ec" stroke="#2f7d62" stroke-width="2"/>
<circle cx="156.9" cy="244.3" r="3.5" fill="#f7f4ec" stroke="#2f7d62" stroke-width="2"/>
<circle cx="204.1" cy="250.0" r="3.5" fill="#f7f4ec" stroke="#2f7d62" stroke-width="2"/>
<circle cx="251.4" cy="240.5" r="3.5" fill="#f7f4ec" stroke="#2f7d62" stroke-width="2"/>
<circle cx="298.6" cy="247.4" r="3.5" fill="#f7f4ec" stroke="#2f7d62" stroke-width="2"/>
<circle cx="345.9" cy="261.0" r="3.5" fill="#f7f4ec" stroke="#2f7d62" stroke-width="2"/>
<circle cx="393.1" cy="285.3" r="3.5" fill="#f7f4ec" stroke="#2f7d62" stroke-width="2"/>
<circle cx="440.4" cy="284.4" r="3.5" fill="#f7f4ec" stroke="#2f7d62" stroke-width="2"/>
<circle cx="487.6" cy="272.2" r="3.5" fill="#f7f4ec" stroke="#2f7d62" stroke-width="2"/>
<circle cx="534.9" cy="259.7" r="3.5" fill="#f7f4ec" stroke="#2f7d62" stroke-width="2"/>
<circle cx="582.1" cy="242.0" r="3.5" fill="#f7f4ec" stroke="#2f7d62" stroke-width="2"/>
<circle cx="629.4" cy="243.6" r="3.5" fill="#f7f4ec" stroke="#2f7d62" stroke-width="2"/>
<circle cx="676.6" cy="257.8" r="3.5" fill="#f7f4ec" stroke="#2f7d62" stroke-width="2"/>
<circle cx="723.9" cy="260.9" r="3.5" fill="#f7f4ec" stroke="#2f7d62" stroke-width="2"/>
<circle cx="771.1" cy="262.9" r="3.5" fill="#f7f4ec" stroke="#2f7d62" stroke-width="2"/>
<circle cx="818.4" cy="276.6" r="3.5" fill="#f7f4ec" stroke="#2f7d62" stroke-width="2"/>
<circle cx="865.6" cy="284.5" r="3.5" fill="#f7f4ec" stroke="#2f7d62" stroke-width="2"/>
<circle cx="912.9" cy="295.2" r="3.5" fill="#f7f4ec" stroke="#2f7d62" stroke-width="2"/>
<circle cx="960.1" cy="297.5" r="3.5" fill="#f7f4ec" stroke="#2f7d62" stroke-width="2"/>
<circle cx="1007.4" cy="294.2" r="3.5" fill="#f7f4ec" stroke="#2f7d62" stroke-width="2"/>
<rect x="320" y="98" width="14" height="14" rx="3" fill="#2f7d62"/>
<text x="343" y="110" fill="#16211d" font-size="13" font-family="Arial, sans-serif">spacer folded alone</text>
<line x1="117.6" y1="284.6" x2="117.6" y2="228.5" stroke="#d6a84a" stroke-width="2" opacity="0.45"/>
<line x1="164.9" y1="294.6" x2="164.9" y2="233.7" stroke="#d6a84a" stroke-width="2" opacity="0.45"/>
<line x1="212.1" y1="291.2" x2="212.1" y2="237.5" stroke="#d6a84a" stroke-width="2" opacity="0.45"/>
<line x1="259.4" y1="285.0" x2="259.4" y2="238.0" stroke="#d6a84a" stroke-width="2" opacity="0.45"/>
<line x1="306.6" y1="279.6" x2="306.6" y2="244.0" stroke="#d6a84a" stroke-width="2" opacity="0.45"/>
<line x1="353.9" y1="282.2" x2="353.9" y2="243.0" stroke="#d6a84a" stroke-width="2" opacity="0.45"/>
<line x1="401.1" y1="310.3" x2="401.1" y2="251.4" stroke="#d6a84a" stroke-width="2" opacity="0.45"/>
<line x1="448.4" y1="306.0" x2="448.4" y2="237.2" stroke="#d6a84a" stroke-width="2" opacity="0.45"/>
<line x1="495.6" y1="307.0" x2="495.6" y2="234.2" stroke="#d6a84a" stroke-width="2" opacity="0.45"/>
<line x1="542.9" y1="292.2" x2="542.9" y2="212.6" stroke="#d6a84a" stroke-width="2" opacity="0.45"/>
<line x1="590.1" y1="291.7" x2="590.1" y2="218.3" stroke="#d6a84a" stroke-width="2" opacity="0.45"/>
<line x1="637.4" y1="279.7" x2="637.4" y2="215.6" stroke="#d6a84a" stroke-width="2" opacity="0.45"/>
<line x1="684.6" y1="262.8" x2="684.6" y2="218.0" stroke="#d6a84a" stroke-width="2" opacity="0.45"/>
<line x1="731.9" y1="253.2" x2="731.9" y2="201.7" stroke="#d6a84a" stroke-width="2" opacity="0.45"/>
<line x1="779.1" y1="271.7" x2="779.1" y2="221.9" stroke="#d6a84a" stroke-width="2" opacity="0.45"/>
<line x1="826.4" y1="281.8" x2="826.4" y2="226.8" stroke="#d6a84a" stroke-width="2" opacity="0.45"/>
<line x1="873.6" y1="284.8" x2="873.6" y2="217.3" stroke="#d6a84a" stroke-width="2" opacity="0.45"/>
<line x1="920.9" y1="284.0" x2="920.9" y2="205.5" stroke="#d6a84a" stroke-width="2" opacity="0.45"/>
<line x1="968.1" y1="265.1" x2="968.1" y2="196.7" stroke="#d6a84a" stroke-width="2" opacity="0.45"/>
<line x1="1015.4" y1="268.0" x2="1015.4" y2="185.1" stroke="#d6a84a" stroke-width="2" opacity="0.45"/>
<polyline points="117.6,255.9 164.9,261.5 212.1,262.0 259.4,261.7 306.6,261.1 353.9,262.5 401.1,283.1 448.4,271.5 495.6,267.0 542.9,252.5 590.1,253.7 637.4,245.8 684.6,239.2 731.9,226.0 779.1,245.4 826.4,254.0 873.6,252.6 920.9,247.6 968.1,230.0 1015.4,227.7" fill="none" stroke="#d6a84a" stroke-width="2.5" opacity="0.85"/>
<circle cx="117.6" cy="255.9" r="3.5" fill="#f7f4ec" stroke="#d6a84a" stroke-width="2"/>
<circle cx="164.9" cy="261.5" r="3.5" fill="#f7f4ec" stroke="#d6a84a" stroke-width="2"/>
<circle cx="212.1" cy="262.0" r="3.5" fill="#f7f4ec" stroke="#d6a84a" stroke-width="2"/>
<circle cx="259.4" cy="261.7" r="3.5" fill="#f7f4ec" stroke="#d6a84a" stroke-width="2"/>
<circle cx="306.6" cy="261.1" r="3.5" fill="#f7f4ec" stroke="#d6a84a" stroke-width="2"/>
<circle cx="353.9" cy="262.5" r="3.5" fill="#f7f4ec" stroke="#d6a84a" stroke-width="2"/>
<circle cx="401.1" cy="283.1" r="3.5" fill="#f7f4ec" stroke="#d6a84a" stroke-width="2"/>
<circle cx="448.4" cy="271.5" r="3.5" fill="#f7f4ec" stroke="#d6a84a" stroke-width="2"/>
<circle cx="495.6" cy="267.0" r="3.5" fill="#f7f4ec" stroke="#d6a84a" stroke-width="2"/>
<circle cx="542.9" cy="252.5" r="3.5" fill="#f7f4ec" stroke="#d6a84a" stroke-width="2"/>
<circle cx="590.1" cy="253.7" r="3.5" fill="#f7f4ec" stroke="#d6a84a" stroke-width="2"/>
<circle cx="637.4" cy="245.8" r="3.5" fill="#f7f4ec" stroke="#d6a84a" stroke-width="2"/>
<circle cx="684.6" cy="239.2" r="3.5" fill="#f7f4ec" stroke="#d6a84a" stroke-width="2"/>
<circle cx="731.9" cy="226.0" r="3.5" fill="#f7f4ec" stroke="#d6a84a" stroke-width="2"/>
<circle cx="779.1" cy="245.4" r="3.5" fill="#f7f4ec" stroke="#d6a84a" stroke-width="2"/>
<circle cx="826.4" cy="254.0" r="3.5" fill="#f7f4ec" stroke="#d6a84a" stroke-width="2"/>
<circle cx="873.6" cy="252.6" r="3.5" fill="#f7f4ec" stroke="#d6a84a" stroke-width="2"/>
<circle cx="920.9" cy="247.6" r="3.5" fill="#f7f4ec" stroke="#d6a84a" stroke-width="2"/>
<circle cx="968.1" cy="230.0" r="3.5" fill="#f7f4ec" stroke="#d6a84a" stroke-width="2"/>
<circle cx="1015.4" cy="227.7" r="3.5" fill="#f7f4ec" stroke="#d6a84a" stroke-width="2"/>
<rect x="320" y="120" width="14" height="14" rx="3" fill="#d6a84a"/>
<text x="343" y="132" fill="#16211d" font-size="13" font-family="Arial, sans-serif">spacer folded with the 76 nt scaffold</text>
<text x="45" y="448" fill="#61706a" font-size="12" font-family="Arial, sans-serif">Filled markers are significant after Benjamini-Hochberg correction of gene-blocked permutation p-values; bars are 95% intervals from resampling whole genes.</text>
</svg>
